<svg width="20" height="20" viewBox="0 0 20 20" fill="none" xmlns="http://www.w3.org/2000/svg">
<g id="Google">
<path id="Intersect" d="M1.02388 14.431L4.38721 11.859C4.1949 11.2749 4.09091 10.65 4.09091 10C4.09091 9.35004 4.1949 8.72516 4.38721 8.14105L1.02388 5.56909C0.367906 6.90275 0 8.40634 0 10C0 11.5937 0.367906 13.0973 1.02388 14.431Z" fill="#FBBC05"/>
<path id="Intersect_2" d="M4.38725 8.14102C5.16325 5.78407 7.3773 4.09091 10 4.09091C11.4091 4.09091 12.6819 4.59091 13.6819 5.40909L16.591 2.5C14.8182 0.954545 12.5455 0 10 0C6.04828 0 2.6505 2.2621 1.02393 5.56906L4.38725 8.14102Z" fill="#EA4335"/>
<path id="Subtract" d="M9.99993 19.9999C6.04707 19.9999 2.6485 17.7366 1.02246 14.4281L4.38442 11.8506C5.15795 14.2119 7.37411 15.909 9.99993 15.909C11.2848 15.909 12.4233 15.6064 13.3249 15.0374L16.5179 17.5094C14.77 19.1346 12.439 19.9999 9.99993 19.9999Z" fill="#34A853"/>
<path id="Intersect_3" d="M10 8.18188H19.3182C19.4545 8.77279 19.5455 9.40916 19.5455 10.0001C19.5455 13.2594 18.3531 15.8033 16.5179 17.5096L13.325 15.0376C14.369 14.3787 15.0953 13.3626 15.3636 12.0455H10V8.18188Z" fill="#4285F4"/>
</g>
</svg>
